<svg id="id" width="20" height="20" viewBox="0 0 20 20" fill="none" xmlns="http://www.w3.org/2000/svg">
<path fill-rule="evenodd" clip-rule="evenodd" d="M11.0001 3C11.0001 3.55228 10.5523 4 10.0001 4C9.44778 4 9.00006 3.55228 9.00006 3C9.00006 2.44772 9.44778 2 10.0001 2C10.5523 2 11.0001 2.44772 11.0001 3ZM10.9334 12.8626C10.8575 13.4097 11.2395 13.9146 11.7865 13.9905C12.6477 14.1099 12.9201 14.5566 12.9822 14.8302C13.0615 15.1793 12.8944 15.2588 12.8743 15.2668L10.0001 15.9705L7.12585 15.2668C7.10573 15.2588 6.93867 15.1793 7.01793 14.8302C7.08004 14.5566 7.35247 14.1099 8.2136 13.9905C8.76065 13.9146 9.14262 13.4097 9.06675 12.8626C8.99273 12.3289 8.51026 11.9523 7.97876 12.0047C7.94651 12.0016 7.91381 12 7.88074 12C7.72797 12 7.29159 11.9567 6.74305 11.8036C6.20168 11.6526 5.61717 11.4126 5.12956 11.0608C4.64922 10.7143 4.28835 10.2795 4.11596 9.72485C3.94406 9.1717 3.92386 8.38439 4.33265 7.26634C4.39201 7.10399 4.40765 6.93097 4.38073 6.76389L5.44571 7.41009C5.66503 7.54337 5.78342 7.66773 5.85628 7.79545C5.92953 7.92386 6.00007 8.13175 6.00007 8.5C6.00007 9.05228 6.44779 9.5 7.00007 9.5C7.55235 9.5 8.00007 9.05228 8.00007 8.5C8.00007 7.86825 7.8763 7.30022 7.5935 6.80446C7.31035 6.30809 6.91063 5.95987 6.48321 5.70024L3.92021 4.14508C3.68704 4.00359 3.4062 3.96349 3.14274 4.03405C2.87929 4.10462 2.65609 4.27973 2.52485 4.51882C2.09855 5.29543 2.05268 6.18747 2.32325 6.96481C1.92472 8.23368 1.90551 9.35123 2.20607 10.3184C2.53621 11.3807 3.21651 12.1468 3.95944 12.6828C4.44009 13.0296 4.95711 13.2881 5.45012 13.4794C5.26882 13.7605 5.14025 14.0672 5.06757 14.3874C4.82408 15.4598 5.25961 16.8379 6.61069 17.1995L6.63143 17.2048L9.74324 17.9667C9.82601 17.9887 9.91226 18.0003 10.0001 18.0002C10.0879 18.0003 10.1741 17.9887 10.2569 17.9667L13.3687 17.2048L13.3894 17.1995C14.7405 16.8379 15.176 15.4598 14.9326 14.3874C14.8566 14.0529 14.7197 13.7332 14.5254 13.4419C14.9896 13.2547 15.4714 13.0074 15.9214 12.6828C16.6643 12.1468 17.3446 11.3807 17.6747 10.3184C17.9753 9.35123 17.9561 8.23368 17.5575 6.96481C17.8281 6.18747 17.7822 5.29543 17.3559 4.51882C17.2247 4.27973 17.0015 4.10462 16.7381 4.03405C16.4746 3.96349 16.1938 4.00359 15.9606 4.14508L13.3976 5.70024C12.9702 5.95987 12.5705 6.30809 12.2873 6.80446C12.0045 7.30022 11.8807 7.86825 11.8807 8.5C11.8807 9.05228 12.3284 9.5 12.8807 9.5C13.433 9.5 13.8807 9.05228 13.8807 8.5C13.8807 8.13175 13.9513 7.92386 14.0245 7.79545C14.0974 7.66773 14.2158 7.54337 14.4351 7.41009L15.5001 6.76389C15.4732 6.93097 15.4888 7.10399 15.5481 7.26634C15.9569 8.38439 15.9367 9.1717 15.7648 9.72485C15.5925 10.2795 15.2316 10.7143 14.7512 11.0608C14.2636 11.4126 13.6791 11.6526 13.1377 11.8036C12.5892 11.9567 12.1528 12 12.0001 12C11.9876 12 11.9752 12.0002 11.9628 12.0007C11.4549 11.9803 11.0047 12.3486 10.9334 12.8626ZM7.60564 5.05276C7.85263 4.55878 8.4533 4.35856 8.94728 4.60555C9.29878 4.7813 9.67197 4.98149 10.0001 5.24827C10.3282 4.98149 10.7013 4.7813 11.0528 4.60555C11.5468 4.35856 12.1475 4.55878 12.3945 5.05276C12.6415 5.54674 12.4413 6.14741 11.9473 6.3944C11.4498 6.64314 11.2467 6.78964 11.1427 6.91417C11.0816 6.98731 11.0007 7.11281 11.0001 7.49554C11.0001 7.49702 11.0001 7.4985 11.0001 7.49998C11.0001 8.05226 10.5524 8.49997 10.0001 8.49997C9.96555 8.49997 9.93144 8.49823 9.89782 8.49481C9.69721 8.47444 9.51413 8.39477 9.36638 8.2736C9.14275 8.09021 9.00006 7.81176 9.00006 7.49998C9.00006 7.4985 9.00006 7.49702 9.00006 7.49554C8.99944 7.11281 8.91852 6.98731 8.85745 6.91417C8.75348 6.78964 8.55033 6.64314 8.05285 6.3944C7.55887 6.14741 7.35865 5.54674 7.60564 5.05276Z" fill="#EE3C3C"/>
</svg>
