<svg id="id" width="20" height="20" viewBox="0 0 20 20" fill="none" xmlns="http://www.w3.org/2000/svg">
<path fill-rule="evenodd" clip-rule="evenodd" d="M12.8647 2.89284C14.0363 1.72127 15.9357 1.72127 17.1073 2.89284C18.2789 4.06441 18.2789 5.96391 17.1073 7.13548L14.7171 9.52574L16.7556 14.0106C17.1244 14.8219 16.9512 15.7769 16.321 16.4071C15.449 17.2791 14.022 17.2346 13.2061 16.3098L10.7343 13.5085L10.1294 14.1134L10.3527 15.3787C10.4786 16.0925 10.2484 16.8228 9.73588 17.3354C8.71405 18.3572 7.004 18.1467 6.26051 16.9075L5.07256 14.9276L3.09265 13.7397C1.8535 12.9962 1.64298 11.2861 2.66481 10.2643C3.17734 9.75175 3.9077 9.52153 4.62149 9.64749L5.88675 9.87077L6.49167 9.26585L3.69038 6.79413C2.76564 5.97818 2.72109 4.5512 3.59313 3.67917C4.22332 3.04898 5.17831 2.8758 5.98965 3.24459L10.4744 5.28312L12.8647 2.89284ZM15.6931 4.30705C15.3026 3.91653 14.6694 3.91653 14.2789 4.30705L11.3986 7.18736C11.1038 7.48211 10.6572 7.56311 10.2777 7.39062L5.16204 5.06533C5.10967 5.04152 5.04802 5.0527 5.00734 5.09338C4.95105 5.14967 4.95393 5.24178 5.01362 5.29445L8.61307 8.47044C8.82007 8.65308 8.94235 8.91316 8.95097 9.18908C8.95958 9.46499 8.85375 9.73219 8.65856 9.92739L6.9328 11.6531C6.70206 11.8839 6.37326 11.9875 6.05191 11.9308L4.27392 11.6171C4.20282 11.6045 4.13007 11.6274 4.07902 11.6785C3.97724 11.7803 3.99821 11.9506 4.12164 12.0247L6.31593 13.3412C6.45668 13.4257 6.57447 13.5435 6.65892 13.6842L7.9755 15.8785C8.04955 16.002 8.21989 16.0229 8.32167 15.9211C8.37272 15.8701 8.39565 15.7973 8.3831 15.7262L8.06934 13.9483C8.01263 13.6269 8.11628 13.2981 8.34702 13.0674L10.0728 11.3416C10.268 11.1464 10.5352 11.0406 10.8111 11.0492C11.087 11.0578 11.3471 11.1801 11.5297 11.3871L14.7058 14.9866C14.7584 15.0463 14.8505 15.0492 14.9068 14.9929C14.9475 14.9522 14.9587 14.8905 14.9349 14.8382L12.6096 9.72246C12.4371 9.34298 12.5181 8.8963 12.8128 8.60155L15.6931 5.72127C16.0836 5.33074 16.0836 4.69758 15.6931 4.30705Z" fill="#C15DF3"/>
</svg>
