<svg id="id" width="20" height="20" viewBox="0 0 20 20" fill="none" xmlns="http://www.w3.org/2000/svg">
<path fill-rule="evenodd" clip-rule="evenodd" d="M2 4C2 3.44772 2.44772 3 3 3H5C5.48884 3 5.90603 3.35341 5.98639 3.8356L6.18046 5H17C17.5523 5 18 5.44772 18 6V9.85094C18 11.1174 17.0875 12.1996 15.8393 12.4136L6.96492 13.9352C6.91434 13.9438 6.864 13.9485 6.81422 13.9495C6.76603 13.9654 6.71601 13.9778 6.6644 13.9864C6.11963 14.0772 5.6044 13.7092 5.51361 13.1644L4.15287 5H3C2.44772 5 2 4.55228 2 4ZM7.32127 11.8449L6.51379 7H16V9.85094C16 10.1432 15.7894 10.3929 15.5014 10.4423L7.32127 11.8449ZM9 16.5C9 17.3284 8.32843 18 7.5 18C6.67157 18 6 17.3284 6 16.5C6 15.6716 6.67157 15 7.5 15C8.32843 15 9 15.6716 9 16.5ZM16 16.5C16 17.3284 15.3284 18 14.5 18C13.6716 18 13 17.3284 13 16.5C13 15.6716 13.6716 15 14.5 15C15.3284 15 16 15.6716 16 16.5Z" fill="#F94CA3"/>
</svg>
