<svg id="id" width="24" height="24" viewBox="0 0 24 24" fill="none" xmlns="http://www.w3.org/2000/svg">
<path d="M18.8282 6.58722C17.2661 5.02513 14.7334 5.02513 13.1713 6.58722L13.0822 6.67633C13.3664 6.84417 13.6343 7.05016 13.8785 7.29433C14.1226 7.53849 14.3286 7.80637 14.4965 8.09054L14.5856 8.00144C15.3666 7.22039 16.6329 7.22039 17.414 8.00144C18.195 8.78248 18.195 10.0488 17.414 10.8299L11.1216 17.1223C9.94999 18.2939 8.0505 18.2939 6.87892 17.1223C5.70735 15.9507 5.70735 14.0512 6.87892 12.8797L10.343 9.41565C10.7335 9.02513 11.3667 9.02513 11.7572 9.41565C12.1477 9.80617 12.1477 10.4393 11.7572 10.8299L9.05054 13.5365C8.66002 13.927 8.66002 14.5602 9.05054 14.9507C9.44107 15.3412 10.0742 15.3412 10.4648 14.9507L13.1714 12.2441C14.343 11.0725 14.343 9.17301 13.1714 8.00144C11.9998 6.82986 10.1003 6.82986 8.92875 8.00144L5.46471 11.4654C3.51209 13.4181 3.51209 16.5839 5.46471 18.5365C7.41733 20.4891 10.5832 20.4891 12.5358 18.5365L18.8282 12.2441C20.3903 10.682 20.3903 8.14932 18.8282 6.58722Z" fill="#2C2D2E"/>
</svg>
