<svg xmlns="http://www.w3.org/2000/svg" id="id" width="16" height="16" viewBox="0 0 16 16" class="base-0-2-1" ie-style=""><path fill-rule="evenodd" d="M12.06 3c.549.004.994.45.994 1 0 .382-.215.715-.531.883-.391.218-.469.457-.469.867v.407h-.004c-.037.707-.318 1.349-.761 1.843.443.494.724 1.136.761 1.843h.004v.407c0 .41.078.649.469.867.316.168.531.501.531.883 0 .552-.448 1-1 1h-.007c-1.1-.004-1.993-.898-1.993-2v-1c0-.552-.448-1-1-1h-.519v3c0 .552-.448 1-1 1s-1-.448-1-1V9H6c-.552 0-1 .448-1 1v1c0 1.102-.893 1.996-1.993 2H3c-.552 0-1-.448-1-1 0-.382.215-.715.531-.883.391-.218.469-.457.469-.867v-.407h.004c.037-.708.32-1.352.764-1.847-.441-.494-.72-1.134-.757-1.839h-.004V5.75c0-.41-.078-.649-.47-.867-.315-.168-.53-.501-.53-.883 0-.552.448-1 1-1h.006c1.101.004 1.994.898 1.994 2v1c0 .552.448 1 1 1h.528V4c0-.552.448-1 1-1s1 .448 1 1v3h.519c.552 0 1-.448 1-1V5c0-1.102.893-1.996 1.993-2h.013z"></path></svg>
