<svg id="id" width="20" height="20" viewBox="0 0 20 20" fill="none" xmlns="http://www.w3.org/2000/svg">
<path fill-rule="evenodd" clip-rule="evenodd" d="M10 11C10.5767 11 11.1254 11.249 11.5052 11.683L13 13.3914V5H7V13.3914L8.49485 11.683C8.87462 11.249 9.42327 11 10 11ZM13.1917 16.6476C13.3876 16.8716 13.6707 17 13.9682 17C14.538 17 15 16.538 15 15.9682V5C15 3.89543 14.1046 3 13 3H7C5.89543 3 5 3.89543 5 5V15.9682C5 16.538 5.46195 17 6.0318 17C6.32933 17 6.61238 16.8716 6.80831 16.6476L10 13L13.1917 16.6476Z" fill="#A5A7AD"/>
</svg>
