<svg width="20" height="20" viewBox="0 0 20 20" id="id" xmlns="http://www.w3.org/2000/svg" class="base-0-2-1" ie-style=""><path fill-rule="evenodd" clip-rule="evenodd" d="M9.98357 8.50683L14.178 4.31241c.4165-.41655 1.0931-.41655 1.5096 0 .4165.41654.4165 1.09306 0 1.5096l-4.1944 4.19439 4.1944 4.1944c.4078.4069.4078 1.0689 0 1.4768-.4079.4078-1.0699.4078-1.4768 0l-4.1944-4.1944-4.19439 4.1944c-.41654.4165-1.09306.4165-1.5096 0-.41655-.4165-.41655-1.0931 0-1.5096l4.19442-4.19443-4.19442-4.19442c-.40785-.40688-.40785-1.0689 0-1.47674.40784-.40785 1.06986-.40785 1.47674 0l4.19442 4.19442z"></path></svg>