<svg width="20" height="20" id="id" viewBox="0 0 20 20" xmlns="http://www.w3.org/2000/svg" class="base-0-2-1" ie-style=""><path fill-rule="evenodd" clip-rule="evenodd" d="M8.58625 10.0204l-2.293-2.29897c-.391-.39101-.391-1.02666 0-1.41767.39-.39102 1.024-.39102 1.414 0l2.29295 2.29895 2.2931-2.29895c.3899-.39102 1.024-.39102 1.414 0 .3899.39101.3899 1.02666 0 1.41767l-2.2931 2.29897 2.2931 2.2989c.3899.3911.3899 1.0267 0 1.4177-.39.391-1.0241.391-1.414 0l-2.2931-2.2989-2.29295 2.2989c-.39.391-1.024.391-1.414 0-.391-.391-.391-1.0266 0-1.4177l2.293-2.2989z"></path></svg>