<svg width="20" height="20" id="id" viewBox="0 0 20 20" xmlns="http://www.w3.org/2000/svg" class="base-0-2-1" ie-style=""><path d="M10 6c.5523 0 1 .44772 1 1v2.81818c0 .55232-.4477 1.00002-1 1.00002-.55228 0-1-.4477-1-1.00002V7c0-.55228.44772-1 1-1zm0 8c.5523 0 1-.4477 1-1s-.4477-1-1-1c-.55228 0-1 .4477-1 1s.44772 1 1 1z"></path><path fill-rule="evenodd" clip-rule="evenodd" d="M10 18c4.4183 0 8-3.5817 8-8 0-4.41828-3.5817-8-8-8-4.41828 0-8 3.58172-8 8 0 4.4183 3.58172 8 8 8zm0-2c3.3137 0 6-2.6863 6-6 0-3.31371-2.6863-6-6-6-3.31371 0-6 2.68629-6 6 0 3.3137 2.68629 6 6 6z"></path></svg>