<svg xmlns="http://www.w3.org/2000/svg" id="id" width="16" height="16" viewBox="0 0 16 16" class="base-0-2-1" ie-style=""><path fill-rule="evenodd" d="M13.768 3c.416 0 .754.338.754.754s-.338.754-.754.754h-3.267v7.742c0 .414-.337.75-.751.75S9 12.664 9 12.25V4.508H5.754C5.338 4.508 5 4.17 5 3.754S5.338 3 5.754 3h8.014zM6.77 7c.411 0 .746.334.746.746s-.335.746-.746.746H5.504v3.756c0 .415-.337.752-.752.752S4 12.663 4 12.248V8.492H2.746c-.412 0-.746-.334-.746-.746S2.334 7 2.746 7H6.77z"></path></svg>