<svg id="id" width="20" height="20" viewBox="0 0 20 20" xmlns="http://www.w3.org/2000/svg">
<path fill-rule="evenodd" clip-rule="evenodd" d="M11.6718 7.50022C11.1784 7.17058 10.5984 6.99463 10.0051 6.99463C9.20942 6.99463 8.44635 7.3107 7.88375 7.87331C7.32114 8.43592 7.00507 9.19898 7.00507 9.99463C7.00507 10.588 7.18101 11.168 7.51066 11.6613C7.8403 12.1547 8.30884 12.5392 8.85702 12.7663C9.40519 12.9933 10.0084 13.0527 10.5903 12.937C11.1723 12.8212 11.7068 12.5355 12.1264 12.1159C12.5459 11.6964 12.8317 11.1618 12.9474 10.5799C13.0632 9.99796 13.0038 9.39476 12.7767 8.84658C12.5496 8.2984 12.1651 7.82986 11.6718 7.50022ZM9.1736 10.5502C9.06371 10.3857 9.00507 10.1924 9.00507 9.99463C9.00507 9.72941 9.11042 9.47506 9.29796 9.28752C9.4855 9.09999 9.73985 8.99463 10.0051 8.99463C10.2028 8.99463 10.3962 9.05328 10.5606 9.16316C10.7251 9.27304 10.8533 9.42922 10.9289 9.61195C11.0046 9.79467 11.0244 9.99574 10.9859 10.1897C10.9473 10.3837 10.852 10.5619 10.7122 10.7017C10.5723 10.8416 10.3941 10.9368 10.2002 10.9754C10.0062 11.014 9.80511 10.9942 9.62238 10.9185C9.43966 10.8428 9.28348 10.7146 9.1736 10.5502Z" />
<path fill-rule="evenodd" clip-rule="evenodd" d="M9.02511 2.0547H11.0251C11.1977 2.0537 11.3676 2.09738 11.5183 2.18149C11.669 2.2656 11.7954 2.38729 11.8851 2.5347L12.7351 3.9547C12.8248 4.10212 12.9512 4.22381 13.1019 4.30792C13.2526 4.39203 13.4225 4.43571 13.5951 4.4347H15.7851C15.9596 4.43576 16.1308 4.48246 16.2817 4.57018C16.4326 4.65789 16.5579 4.78357 16.6451 4.9347L17.7051 6.8547C17.7929 7.00672 17.8391 7.17917 17.8391 7.3547C17.8391 7.53024 17.7929 7.70269 17.7051 7.8547L16.7051 9.5447C16.6173 9.69672 16.5711 9.86917 16.5711 10.0447C16.5711 10.2202 16.6173 10.3927 16.7051 10.5447L17.7051 12.2347C17.7929 12.3867 17.8391 12.5592 17.8391 12.7347C17.8391 12.9102 17.7929 13.0827 17.7051 13.2347L16.6451 15.0747C16.5579 15.2258 16.4326 15.3515 16.2817 15.4392C16.1308 15.5269 15.9596 15.5737 15.7851 15.5747H13.5951C13.4225 15.5737 13.2526 15.6174 13.1019 15.7015C12.9512 15.7856 12.8248 15.9073 12.7351 16.0547L11.8851 17.4547C11.7966 17.604 11.6708 17.7277 11.52 17.8136C11.3692 17.8995 11.1987 17.9447 11.0251 17.9447H9.02511C8.85156 17.9447 8.68102 17.8995 8.53023 17.8136C8.37945 17.7277 8.25361 17.604 8.16511 17.4547L7.27511 16.0347C7.18537 15.8873 7.059 15.7656 6.9083 15.6815C6.7576 15.5974 6.58769 15.5537 6.41511 15.5547H4.22511C4.05059 15.5537 3.87939 15.5069 3.72852 15.4192C3.57765 15.3315 3.45236 15.2058 3.36511 15.0547L2.29511 13.1547C2.20734 13.0027 2.16113 12.8302 2.16113 12.6547C2.16113 12.4792 2.20734 12.3067 2.29511 12.1547L3.29511 10.4647C3.38288 10.3127 3.42908 10.1402 3.42908 9.9647C3.42908 9.78917 3.38288 9.61672 3.29511 9.4647L2.29511 7.7747C2.20734 7.62269 2.16113 7.45024 2.16113 7.2747C2.16113 7.09917 2.20734 6.92672 2.29511 6.7747L3.36511 4.9347C3.45236 4.78357 3.57765 4.65789 3.72852 4.57018C3.87939 4.48246 4.05059 4.43576 4.22511 4.4347H6.41511C6.58769 4.43571 6.7576 4.39203 6.9083 4.30792C7.059 4.22381 7.18537 4.10212 7.27511 3.9547L8.16511 2.5347C8.25485 2.38729 8.38122 2.2656 8.53192 2.18149C8.68262 2.09738 8.85252 2.0537 9.02511 2.0547ZM11.0251 4.9847L10.4651 4.0547H9.54511L8.98511 4.9847C8.71798 5.42736 8.341 5.79348 7.89071 6.04753C7.44042 6.30158 6.93212 6.43495 6.41511 6.4347H4.80511L4.62511 6.7547L4.32511 7.2647L5.03511 8.4947C5.31544 8.9613 5.46354 9.49537 5.46354 10.0397C5.46354 10.584 5.31544 11.1181 5.03511 11.5847L4.32511 12.7747L4.61511 13.2647L4.80511 13.6047H6.41511C6.93212 13.6045 7.44042 13.7378 7.89071 13.9919C8.341 14.2459 8.71798 14.612 8.98511 15.0547L9.54511 15.9847H10.4651L11.0251 15.0547C11.2873 14.6046 11.6621 14.2305 12.1127 13.9693C12.5634 13.708 13.0742 13.5686 13.5951 13.5647H15.2051L15.3951 13.2347L15.6851 12.7347L14.9651 11.5447C14.6848 11.0781 14.5367 10.544 14.5367 9.9997C14.5367 9.45537 14.6848 8.9213 14.9651 8.4547L15.6451 7.2647L15.3451 6.7447L15.1651 6.4347H13.5951C13.0781 6.43495 12.5698 6.30158 12.1195 6.04753C11.6692 5.79348 11.2922 5.42736 11.0251 4.9847Z" />
</svg>
