<svg xmlns="http://www.w3.org/2000/svg" id="id" width="16" height="16" viewBox="0 0 16 16" class="base-0-2-1" ie-style=""><path fill-rule="evenodd" d="M6.0383 9.56807l-.555 3.726c-.061.407-.44.688-.847.628-.407-.061-.689-.441-.628-.848l1.407-9.438c.061-.407.441-.688.848-.628.407.061.688.441.627.848l-.63 4.223h.788c.491-.013 2.702-.23 3.155-3.073.017-.111.035-.21.053-.301l.157-1.054c.061-.407.44-.689.847-.628.407.061.689.44.628.847l-.202 1.355c-.001.009-.003.018-.005.027-.219 1.297-.94 2.724-2.212 3.569l.004.003c1.386 1.021 1.312 2.442 1.207 3.146l-.196 1.315c-.06.407-.44.688-.847.628-.407-.061-.688-.441-.628-.848l.197-1.315c.255-1.734-1.046-2.134-1.812-2.182h-1.356z"></path></svg>
