<svg id="id" width="96" height="32" viewBox="0 0 96 32"  xmlns="http://www.w3.org/2000/svg">
<path fill-rule="evenodd" clip-rule="evenodd" d="M16.1082 0C7.22607 0 0 7.17755 0 15.9999C0 24.8224 7.22607 32 16.1082 32C19.3737 32 22.5215 31.023 25.1816 29.2171L23.0703 26.7791C21.0061 28.098 18.6003 28.8099 16.1082 28.8099C8.99694 28.8099 3.21167 23.0635 3.21167 15.9999C3.21167 8.93643 8.99694 3.19 16.1082 3.19C23.2195 3.19 29.0048 8.93643 29.0048 15.9999C29.0048 16.9301 28.8996 17.855 28.7009 18.7547C28.2875 20.4386 27.1055 20.9594 26.1973 20.8889C25.3018 20.8173 24.2379 20.1831 24.231 18.617V15.9999C24.231 11.5512 20.587 7.93174 16.1082 7.93174C11.6295 7.93174 7.98536 11.5512 7.98536 15.9999C7.98536 20.4489 11.6295 24.0683 16.1082 24.0683C18.378 24.0683 20.4322 23.1375 21.9075 21.6416C22.7763 23.0197 24.2149 23.9311 25.9399 24.0688C26.0838 24.0802 26.2274 24.0859 26.3706 24.0859C27.5394 24.0859 28.6792 23.7067 29.6196 22.9975C30.5903 22.2656 31.2969 21.2253 31.693 19.9668C31.7563 19.7658 31.8724 19.3001 31.8737 19.2939C32.1378 18.158 32.2164 17.1099 32.2164 15.9999C32.2164 7.17755 24.9902 0 16.1082 0ZM11.197 15.9999C11.197 13.3102 13.4003 11.1218 16.1082 11.1218C18.8162 11.1218 21.0193 13.3102 21.0193 15.9999C21.0193 18.6898 18.8162 20.8782 16.1082 20.8782C13.4003 20.8782 11.197 18.6898 11.197 15.9999Z" fill="#FF9E00"/>
<path fill-rule="evenodd" clip-rule="evenodd" d="M82.7329 23.4785H79.7109V22.3741C78.5433 23.3884 77.0179 23.9926 75.2233 23.9926C70.9317 23.9926 67.4475 20.5371 67.4475 16.2809C67.4475 12.0247 70.9317 8.56924 75.2233 8.56924C77.0179 8.56924 78.5433 9.17343 79.7109 10.1877V9.0833H82.7329V23.4785ZM44.3706 23.4785H41.3486V9.0834H44.3706V9.88276C45.0417 9.257 46.3048 8.57136 47.8717 8.56924C49.8842 8.56924 51.6863 9.47819 52.8838 10.9035C54.0814 9.47819 55.8835 8.56924 57.8959 8.56924C61.4927 8.56924 64.419 11.4714 64.419 15.0385V23.4785H61.397V15.0385C61.397 13.1241 59.8263 11.5664 57.8959 11.5664C55.9653 11.5664 54.3949 13.1241 54.3949 15.0385V23.4785H51.3728V15.0385C51.3728 13.1241 49.8021 11.5664 47.8717 11.5664C45.9412 11.5664 44.3706 13.1241 44.3706 15.0385V23.4785ZM86.3443 23.4785H89.3663V9.08339H86.3443V23.4785ZM92.978 23.4785H96V2.91402H92.978V23.4785ZM75.2233 11.5259C77.8694 11.5259 79.9546 13.6566 79.9546 16.2809C79.9546 18.9052 77.8694 21.0358 75.2233 21.0358C72.5771 21.0358 70.4288 18.9052 70.4288 16.2809C70.4288 13.6566 72.5771 11.5259 75.2233 11.5259ZM87.8577 2.39987C89.0033 2.39987 89.9334 3.32233 89.9334 4.45841C89.9334 5.5946 89.0033 6.51705 87.8577 6.51705C86.7121 6.51705 85.782 5.5946 85.782 4.45841C85.782 3.32233 86.7121 2.39987 87.8577 2.39987Z" />
</svg>
