<svg id="id" width="32" height="32" viewBox="0 0 32 32" fill="none" xmlns="http://www.w3.org/2000/svg">
<path fill-rule="evenodd" clip-rule="evenodd" d="M16 0C7.17755 0 0 7.17755 0 15.9999C0 24.8224 7.17755 32 16 32C19.2436 32 22.3702 31.023 25.0125 29.2171L22.9154 26.7791C20.8651 28.098 18.4754 28.8099 16 28.8099C8.93653 28.8099 3.1901 23.0635 3.1901 15.9999C3.1901 8.93643 8.93653 3.19 16 3.19C23.0636 3.19 28.81 8.93643 28.81 15.9999C28.81 16.9301 28.7056 17.855 28.5082 18.7547C28.0976 20.4386 26.9235 20.9594 26.0214 20.8889C25.1319 20.8173 24.0752 20.1831 24.0683 18.617V15.9999C24.0683 11.5512 20.4488 7.93174 16 7.93174C11.5514 7.93174 7.93174 11.5512 7.93174 15.9999C7.93174 20.4489 11.5514 24.0683 16 24.0683C18.2546 24.0683 20.295 23.1375 21.7604 21.6416C22.6234 23.0197 24.0523 23.9311 25.7658 24.0688C25.9086 24.0802 26.0513 24.0859 26.1935 24.0859C27.3545 24.0859 28.4867 23.7067 29.4207 22.9975C30.3849 22.2656 31.0868 21.2253 31.4802 19.9668C31.5431 19.7658 31.6584 19.3001 31.6597 19.2939C31.922 18.158 32.0001 17.1099 32.0001 15.9999C32.0001 7.17755 24.8224 0 16 0ZM11.1218 15.9999C11.1218 13.3102 13.3103 11.1218 16 11.1218C18.6898 11.1218 20.8782 13.3102 20.8782 15.9999C20.8782 18.6898 18.6898 20.8782 16 20.8782C13.3103 20.8782 11.1218 18.6898 11.1218 15.9999Z" fill="#FF9E00"/>
</svg>
