<svg width="21" height="22" id="id" viewBox="0 0 21 22" xmlns="http://www.w3.org/2000/svg">
<path fill-rule="evenodd" clip-rule="evenodd" d="M16.3078 14.9512C16.8597 14.9472 17.311 15.3919 17.3151 15.9439C17.3191 16.4959 16.8744 16.9471 16.3224 16.9512L4.32275 17.0392C3.77076 17.0433 3.31949 16.5986 3.31544 16.0466C3.31139 15.4946 3.75609 15.0433 4.30808 15.0393L16.3078 14.9512ZM16.2711 9.95137C16.8231 9.94732 17.2743 10.392 17.2784 10.944C17.2824 11.496 16.8377 11.9473 16.2857 11.9513L4.28607 12.0394C3.73408 12.0434 3.28281 11.5987 3.27876 11.0467C3.27471 10.4947 3.71941 10.0435 4.27139 10.0394L16.2711 9.95137ZM16.2344 4.95151C16.7864 4.94746 17.2377 5.39216 17.2417 5.94414C17.2458 6.49613 16.801 6.9474 16.2491 6.95145L4.24939 7.03949C3.6974 7.04353 3.24613 6.59883 3.24208 6.04685C3.23803 5.49486 3.68273 5.04359 4.23471 5.03954L16.2344 4.95151Z" />
</svg>
