<svg id="id" width="20" height="20" viewBox="0 0 20 20" fill="none" xmlns="http://www.w3.org/2000/svg">
<path fill-rule="evenodd" clip-rule="evenodd" d="M6.5 3H11C13.4853 3 15.5 5.01472 15.5 7.5C15.5 9.98528 13.4853 12 11 12H7.5V13H12.5C13.0523 13 13.5 13.4477 13.5 14C13.5 14.5523 13.0523 15 12.5 15H7.5V16C7.5 16.5523 7.05228 17 6.5 17C5.94772 17 5.5 16.5523 5.5 16V15C4.94772 15 4.5 14.5523 4.5 14C4.5 13.4477 4.94772 13 5.5 13V12C4.94772 12 4.5 11.5523 4.5 11C4.5 10.4477 4.94772 10 5.5 10V4C5.5 3.44772 5.94772 3 6.5 3ZM7.5 10H11C12.3807 10 13.5 8.88071 13.5 7.5C13.5 6.11929 12.3807 5 11 5H7.5V10Z" fill="#24C780"/>
</svg>
