<svg width="100" height="100" id="id" viewBox="0 0 100 100" xmlns="http://www.w3.org/2000/svg">
<path fill-rule="evenodd" clip-rule="evenodd" d="M47 25.5C35.1259 25.5 25.5 35.1259 25.5 47C25.5 58.8741 35.1259 68.5 47 68.5C58.8741 68.5 68.5 58.8741 68.5 47C68.5 35.1259 58.8741 25.5 47 25.5ZM22.5 47C22.5 33.469 33.469 22.5 47 22.5C60.531 22.5 71.5 33.469 71.5 47C71.5 60.531 60.531 71.5 47 71.5C33.469 71.5 22.5 60.531 22.5 47Z" />
<path fill-rule="evenodd" clip-rule="evenodd" d="M62.9393 62.9393C63.5251 62.3536 64.4749 62.3536 65.0607 62.9393L77.0607 74.9393C77.6464 75.5251 77.6464 76.4749 77.0607 77.0607C76.4749 77.6464 75.5251 77.6464 74.9393 77.0607L62.9393 65.0607C62.3536 64.4749 62.3536 63.5251 62.9393 62.9393Z" />
<path fill-rule="evenodd" clip-rule="evenodd" d="M39.4393 39.9393C40.0251 39.3536 40.9749 39.3536 41.5607 39.9393L53.5607 51.9393C54.1464 52.5251 54.1464 53.4749 53.5607 54.0607C52.9749 54.6464 52.0251 54.6464 51.4393 54.0607L39.4393 42.0607C38.8536 41.4749 38.8536 40.5251 39.4393 39.9393Z" />
<path fill-rule="evenodd" clip-rule="evenodd" d="M53.5607 39.9393C52.9749 39.3536 52.0251 39.3536 51.4393 39.9393L39.4393 51.9393C38.8536 52.5251 38.8536 53.4749 39.4393 54.0607C40.0251 54.6464 40.9749 54.6464 41.5607 54.0607L53.5607 42.0607C54.1464 41.4749 54.1464 40.5251 53.5607 39.9393Z" />
</svg>
