<svg xmlns="http://www.w3.org/2000/svg" id="id" width="16" height="16" viewBox="0 0 16 16" class="base-0-2-1" ie-style=""><path fill-rule="evenodd" d="M5.443 6.49143l1.853-4.054c.129-.283.413-.447.705-.437.293-.009.576.154.705.437l1.852 4.054h2.69c.415 0 .752.337.752.752s-.337.752-.752.752h-2.003l2.027 4.436c.171.376.006.821-.37.992-.376.172-.821.007-.993-.369l-.94-2.058H5.03l-.94 2.058c-.172.376-.617.541-.993.369-.376-.171-.541-.616-.369-.992l2.028-4.436H2.752c-.415 0-.752-.337-.752-.752s.337-.752.752-.752h2.691zm.959 1.504l-.687 1.503h4.57l-.687-1.503H6.402zm.688-1.504h1.821l-.91-1.993-.911 1.993z"></path></svg>
