<svg xmlns="http://www.w3.org/2000/svg" id="id" width="16" height="16" viewBox="0 0 16 16" class="base-0-2-1" ie-style=""><path fill-rule="evenodd" d="M11.233 13c.423 0 .767.344.767.767 0 .424-.344.768-.767.768H5.767c-.423 0-.767-.344-.767-.768 0-.423.344-.767.767-.767h5.466zm-.746-5.5V3.756c0-.417.339-.756.757-.756.417 0 .756.339.756.756v7.488c0 .417-.339.756-.756.756-.418 0-.757-.339-.757-.756V8.968H7.921C4.977 8.955 5.006 5.78 5.006 5.78V3.756c0-.417.339-.756.757-.756.417 0 .756.339.756.756V5.78c0 1.648 1.42 1.72 1.42 1.72h2.548z"></path></svg>
